<svg xmlns="http://www.w3.org/2000/svg" xmlns:xlink="http://www.w3.org/1999/xlink" id="Layer_1" x="0px" y="0px" viewBox="0 0 353 65" style="enable-background:new 0 0 353 65;" xml:space="preserve">
<style type="text/css">
	.st0{opacity:6.000000e-02;}
</style>
<g id="Shape_166_xA0_Image_1_" class="st0">
	<g>
		<path d="M292.6,32c-33.5,2.5-65.4-0.6-97.6-7.3c-19.6-4.9-37.7-9.7-56.1-11.6c-21.9-2.2-39.6-2.8-59.4-1.9    c-20.7,0.1-39.8,2.7-57.3,6.3c8.1-2.2,17.7-3.7,26.6-4.7c18.9-2.2,37.8-2.7,56.8-2.4c24.1,0.4,47.8,3.2,71.2,9.1    c34.7,8.8,69.9,14.2,105.8,13C285.9,32.5,287.9,32.3,292.6,32z"></path>
	</g>
</g>
<g id="Shape_166_copy_xA0_Image_1_" class="st0">
	<g>
		<path d="M27.2,30.6c4.7-1,25-4.1,37.6-5.1c31-2.5,63.7-0.1,92.3,5.4c18.6,3.9,36.9,8.9,55.8,11.2c21,2.6,39.4,3.8,60.2,2.5    c1.8-0.1,4.8-0.5,8.6-0.9c-3.4,0.4-6.8,1.1-10.2,1.2c-28,1.1-55.9-0.2-83.4-6.1c-19.3-4.1-38.5-9.3-58.3-11.1    c-19.8-1.7-39.5-3-59.3-1.9C55.9,26.7,41.6,29.4,27.2,30.6z"></path>
	</g>
</g>
<g id="Shape_166_copy_2_xA0_Image_1_" class="st0">
	<g>
		<path d="M40.1,42.8c9.8-3.1,20-4,30.2-5c37.6-3.7,80.3,3.7,110.6,11.4c22.2,5.5,45.4,5.9,68.3,5.4c3.8-0.1,7-0.3,12.9-1    c-16.8,2.1-32.2,1.8-47.7,1.1c-25.1-1.2-49.1-8.9-73.7-12.8c-23-3.7-45.9-4.8-69.1-3.3C61.1,39.2,48.3,40.7,40.1,42.8z"></path>
	</g>
</g>
</svg>